<?xml version="1.0" encoding="utf-8"?>
<!-- Generator: Adobe Illustrator 24.2.1, SVG Export Plug-In . SVG Version: 6.00 Build 0)  -->
<svg version="1.1" id="Layer_1" xmlns="http://www.w3.org/2000/svg" xmlns:xlink="http://www.w3.org/1999/xlink" x="0px" y="0px"
	 viewBox="0 0 30 30" style="enable-background:new 0 0 30 30;" xml:space="preserve">
<style type="text/css">
	.st0{fill:none;}
	.st1{fill:#38577F;}
</style>
<g>
	<path class="st0" d="M0,0h24v24H0V0z"/>
</g>
<g>
	<g>
		<path class="st1" d="M18,6H8C6.9,6,6,6.9,6,8l0,14c0,1.1,0.9,2,2,2h14c1.1,0,2-0.9,2-2V12L18,6z M8,22V8h9v5h5v9H8z M12,11
			c0,0.6-0.4,1-1,1s-1-0.4-1-1s0.4-1,1-1S12,10.4,12,11z M12,15c0,0.6-0.4,1-1,1s-1-0.4-1-1s0.4-1,1-1S12,14.4,12,15z M12,19
			c0,0.5-0.4,1-1,1s-1-0.5-1-1s0.4-1,1-1S12,18.5,12,19z"/>
	</g>
</g>
</svg>
