<?xml version="1.0" encoding="UTF-8"?>
<svg width="189px" height="215px" viewBox="0 0 189 215" version="1.1" xmlns="http://www.w3.org/2000/svg" xmlns:xlink="http://www.w3.org/1999/xlink">
    <!-- Generator: Sketch 48.2 (47327) - http://www.bohemiancoding.com/sketch -->
    <title>tidy-packages-back-01</title>
    <desc>Created with Sketch.</desc>
    <defs></defs>
    <g id="Page-1" stroke="none" stroke-width="1" fill="none" fill-rule="evenodd">
        <g id="Unknown" transform="translate(3.000000, -102.000000)" fill="#FCEAA3" fill-rule="nonzero">
            <path d="M60,6.28 L115,38.13 L115,101.87 L60,133.72 L5,101.87 L5,38.13 L60,6.28 Z M60,0.5 L0,35.25 L0,104.75 L60,139.5 L120,104.75 L120,35.25 L60,0.5 Z" id="Shape"></path>
            <path d="M60,221.28 L115,253.13 L115,316.87 L60,348.72 L5,316.87 L5,253.13 L60,221.28 Z M60,215.5 L0,250.25 L0,319.75 L60,354.5 L120,319.75 L120,250.25 L60,215.5 Z" id="Shape"></path>
            <polygon id="Shape" points="182 211.75 182 142.25 122 107.5 62 142.25 62 211.75 122 246.5"></polygon>
        </g>
    </g>
</svg>